<?xml version="1.0" encoding="UTF-8" standalone="no"?><svg xmlns="http://www.w3.org/2000/svg" xmlns:xlink="http://www.w3.org/1999/xlink" contentScriptType="application/ecmascript" contentStyleType="text/css" height="324px" preserveAspectRatio="none" style="width:379px;height:324px;" version="1.1" viewBox="0 0 379 324" width="379px" zoomAndPan="magnify"><defs><filter height="300%" id="f15jokh9322mim" width="300%" x="-1" y="-1"><feGaussianBlur result="blurOut" stdDeviation="2.0"/><feColorMatrix in="blurOut" result="blurOut2" type="matrix" values="0 0 0 0 0 0 0 0 0 0 0 0 0 0 0 0 0 0 .4 0"/><feOffset dx="4.0" dy="4.0" in="blurOut2" result="blurOut3"/><feBlend in="SourceGraphic" in2="blurOut3" mode="normal"/></filter></defs><g><!--MD5=[335f4d9be48430461c68bf6d6fdba145]
class App--><rect codeLine="3" fill="#FEFECE" filter="url(#f15jokh9322mim)" height="48" id="App" style="stroke:#A80036;stroke-width:1.5;" width="56" x="54" y="13.5"/><ellipse cx="69" cy="29.5" fill="#ADD1B2" rx="11" ry="11" style="stroke:#A80036;stroke-width:1.0;"/><path d="M71.9688,35.1406 Q71.3906,35.4375 70.75,35.5781 Q70.1094,35.7344 69.4063,35.7344 Q66.9063,35.7344 65.5781,34.0938 Q64.2656,32.4375 64.2656,29.3125 Q64.2656,26.1875 65.5781,24.5313 Q66.9063,22.875 69.4063,22.875 Q70.1094,22.875 70.75,23.0313 Q71.4063,23.1875 71.9688,23.4844 L71.9688,26.2031 Q71.3438,25.625 70.75,25.3594 Q70.1563,25.0781 69.5313,25.0781 Q68.1875,25.0781 67.5,26.1563 Q66.8125,27.2188 66.8125,29.3125 Q66.8125,31.4063 67.5,32.4844 Q68.1875,33.5469 69.5313,33.5469 Q70.1563,33.5469 70.75,33.2813 Q71.3438,33 71.9688,32.4219 L71.9688,35.1406 Z " fill="#000000"/><text fill="#000000" font-family="sans-serif" font-size="12" lengthAdjust="spacingAndGlyphs" textLength="24" x="83" y="33.6543">App</text><line style="stroke:#A80036;stroke-width:1.5;" x1="55" x2="109" y1="45.5" y2="45.5"/><line style="stroke:#A80036;stroke-width:1.5;" x1="55" x2="109" y1="53.5" y2="53.5"/><!--MD5=[57fc2a06bf08830a141c83d767cd9477]
class FileOut--><rect codeLine="5" fill="#FEFECE" filter="url(#f15jokh9322mim)" height="60.8047" id="FileOut" style="stroke:#A80036;stroke-width:1.5;" width="158" x="145" y="7"/><ellipse cx="198.25" cy="23" fill="#B4A7E5" rx="11" ry="11" style="stroke:#A80036;stroke-width:1.0;"/><path d="M194.1719,18.7656 L194.1719,16.6094 L201.5625,16.6094 L201.5625,18.7656 L199.0938,18.7656 L199.0938,26.8438 L201.5625,26.8438 L201.5625,29 L194.1719,29 L194.1719,26.8438 L196.6406,26.8438 L196.6406,18.7656 L194.1719,18.7656 Z " fill="#000000"/><text fill="#000000" font-family="sans-serif" font-size="12" font-style="italic" lengthAdjust="spacingAndGlyphs" textLength="43" x="218.75" y="27.1543">FileOut</text><line style="stroke:#A80036;stroke-width:1.5;" x1="146" x2="302" y1="39" y2="39"/><line style="stroke:#A80036;stroke-width:1.5;" x1="146" x2="302" y1="47" y2="47"/><ellipse cx="156" cy="58" fill="#84BE84" rx="3" ry="3" style="stroke:#038048;stroke-width:1.0;"/><text fill="#000000" font-family="sans-serif" font-size="11" lengthAdjust="spacingAndGlyphs" textLength="132" x="165" y="61.2104">write(data: byte[]): void</text><!--MD5=[321dae1e4c20a532a67879525d68ecc8]
class Decorator--><rect codeLine="9" fill="#FEFECE" filter="url(#f15jokh9322mim)" height="73.6094" id="Decorator" style="stroke:#A80036;stroke-width:1.5;" width="194" x="36" y="128"/><ellipse cx="97.25" cy="144" fill="#A9DCDF" rx="11" ry="11" style="stroke:#A80036;stroke-width:1.0;"/><path d="M97.3594,139.3438 L96.2031,144.4219 L98.5313,144.4219 L97.3594,139.3438 Z M95.875,137.1094 L98.8594,137.1094 L102.2188,149.5 L99.7656,149.5 L99,146.4375 L95.7188,146.4375 L94.9688,149.5 L92.5313,149.5 L95.875,137.1094 Z " fill="#000000"/><text fill="#000000" font-family="sans-serif" font-size="12" font-style="italic" lengthAdjust="spacingAndGlyphs" textLength="63" x="117.75" y="148.1543">Decorator</text><line style="stroke:#A80036;stroke-width:1.5;" x1="37" x2="229" y1="160" y2="160"/><rect fill="none" height="6" style="stroke:#C82930;stroke-width:1.0;" width="6" x="44" y="168"/><text fill="#000000" font-family="sans-serif" font-size="11" lengthAdjust="spacingAndGlyphs" textLength="96" x="56" y="174.2104">delegate: FileOut</text><line style="stroke:#A80036;stroke-width:1.5;" x1="37" x2="229" y1="180.8047" y2="180.8047"/><polygon fill="#FFFF44" points="47,186.8047,51,190.8047,47,194.8047,43,190.8047" style="stroke:#B38D22;stroke-width:1.0;"/><text fill="#000000" font-family="sans-serif" font-size="11" lengthAdjust="spacingAndGlyphs" textLength="168" x="56" y="195.0151">doDelegate(data: byte[]): void</text><!--MD5=[d9864fbc435b1cc0cb88613a5bfc7d26]
class FileOutImpl--><rect codeLine="14" fill="#FEFECE" filter="url(#f15jokh9322mim)" height="48" id="FileOutImpl" style="stroke:#A80036;stroke-width:1.5;" width="100" x="265" y="141"/><ellipse cx="280" cy="157" fill="#ADD1B2" rx="11" ry="11" style="stroke:#A80036;stroke-width:1.0;"/><path d="M282.9688,162.6406 Q282.3906,162.9375 281.75,163.0781 Q281.1094,163.2344 280.4063,163.2344 Q277.9063,163.2344 276.5781,161.5938 Q275.2656,159.9375 275.2656,156.8125 Q275.2656,153.6875 276.5781,152.0313 Q277.9063,150.375 280.4063,150.375 Q281.1094,150.375 281.75,150.5313 Q282.4063,150.6875 282.9688,150.9844 L282.9688,153.7031 Q282.3438,153.125 281.75,152.8594 Q281.1563,152.5781 280.5313,152.5781 Q279.1875,152.5781 278.5,153.6563 Q277.8125,154.7188 277.8125,156.8125 Q277.8125,158.9063 278.5,159.9844 Q279.1875,161.0469 280.5313,161.0469 Q281.1563,161.0469 281.75,160.7813 Q282.3438,160.5 282.9688,159.9219 L282.9688,162.6406 Z " fill="#000000"/><text fill="#000000" font-family="sans-serif" font-size="12" lengthAdjust="spacingAndGlyphs" textLength="68" x="294" y="161.1543">FileOutImpl</text><line style="stroke:#A80036;stroke-width:1.5;" x1="266" x2="364" y1="173" y2="173"/><line style="stroke:#A80036;stroke-width:1.5;" x1="266" x2="364" y1="181" y2="181"/><!--MD5=[e4375d4025fa445e2d65ae33118cf697]
class EncryptionOut--><rect codeLine="16" fill="#FEFECE" filter="url(#f15jokh9322mim)" height="48" id="EncryptionOut" style="stroke:#A80036;stroke-width:1.5;" width="120" x="7" y="262"/><ellipse cx="22" cy="278" fill="#ADD1B2" rx="11" ry="11" style="stroke:#A80036;stroke-width:1.0;"/><path d="M24.9688,283.6406 Q24.3906,283.9375 23.75,284.0781 Q23.1094,284.2344 22.4063,284.2344 Q19.9063,284.2344 18.5781,282.5938 Q17.2656,280.9375 17.2656,277.8125 Q17.2656,274.6875 18.5781,273.0313 Q19.9063,271.375 22.4063,271.375 Q23.1094,271.375 23.75,271.5313 Q24.4063,271.6875 24.9688,271.9844 L24.9688,274.7031 Q24.3438,274.125 23.75,273.8594 Q23.1563,273.5781 22.5313,273.5781 Q21.1875,273.5781 20.5,274.6563 Q19.8125,275.7188 19.8125,277.8125 Q19.8125,279.9063 20.5,280.9844 Q21.1875,282.0469 22.5313,282.0469 Q23.1563,282.0469 23.75,281.7813 Q24.3438,281.5 24.9688,280.9219 L24.9688,283.6406 Z " fill="#000000"/><text fill="#000000" font-family="sans-serif" font-size="12" lengthAdjust="spacingAndGlyphs" textLength="88" x="36" y="282.1543">EncryptionOut</text><line style="stroke:#A80036;stroke-width:1.5;" x1="8" x2="126" y1="294" y2="294"/><line style="stroke:#A80036;stroke-width:1.5;" x1="8" x2="126" y1="302" y2="302"/><!--MD5=[9ee3fa60e902d7c2f05886a0381093ab]
class ZipOut--><rect codeLine="18" fill="#FEFECE" filter="url(#f15jokh9322mim)" height="48" id="ZipOut" style="stroke:#A80036;stroke-width:1.5;" width="74" x="162" y="262"/><ellipse cx="177" cy="278" fill="#ADD1B2" rx="11" ry="11" style="stroke:#A80036;stroke-width:1.0;"/><path d="M179.9688,283.6406 Q179.3906,283.9375 178.75,284.0781 Q178.1094,284.2344 177.4063,284.2344 Q174.9063,284.2344 173.5781,282.5938 Q172.2656,280.9375 172.2656,277.8125 Q172.2656,274.6875 173.5781,273.0313 Q174.9063,271.375 177.4063,271.375 Q178.1094,271.375 178.75,271.5313 Q179.4063,271.6875 179.9688,271.9844 L179.9688,274.7031 Q179.3438,274.125 178.75,273.8594 Q178.1563,273.5781 177.5313,273.5781 Q176.1875,273.5781 175.5,274.6563 Q174.8125,275.7188 174.8125,277.8125 Q174.8125,279.9063 175.5,280.9844 Q176.1875,282.0469 177.5313,282.0469 Q178.1563,282.0469 178.75,281.7813 Q179.3438,281.5 179.9688,280.9219 L179.9688,283.6406 Z " fill="#000000"/><text fill="#000000" font-family="sans-serif" font-size="12" lengthAdjust="spacingAndGlyphs" textLength="42" x="191" y="282.1543">ZipOut</text><line style="stroke:#A80036;stroke-width:1.5;" x1="163" x2="235" y1="294" y2="294"/><line style="stroke:#A80036;stroke-width:1.5;" x1="163" x2="235" y1="302" y2="302"/><!--MD5=[f74d41bfce01a3edcaa45518e9532d56]
reverse link FileOut to Decorator--><path d="M187.5,88.0394 C187.5,88.0394 187.5,127.8888 187.5,127.8888 " fill="none" id="FileOut-backto-Decorator" style="stroke:#A80036;stroke-width:1.0;stroke-dasharray:7.0,7.0;"/><polygon fill="none" points="180.5001,88.0395,187.5,68.0394,194.5001,88.0394,180.5001,88.0395" style="stroke:#A80036;stroke-width:1.0;"/><!--MD5=[8a250e27193c595bd5dd03e9518e226e]
reverse link FileOut to FileOutImpl--><path d="M284,88.0394 C284,88.0394 284,140.6746 284,140.6746 " fill="none" id="FileOut-backto-FileOutImpl" style="stroke:#A80036;stroke-width:1.0;stroke-dasharray:7.0,7.0;"/><polygon fill="none" points="277.0001,88.0395,284,68.0394,291.0001,88.0394,277.0001,88.0395" style="stroke:#A80036;stroke-width:1.0;"/><!--MD5=[1d89324448bec86fa54922e86d345cfc]
reverse link Decorator to EncryptionOut--><path d="M81.5,222.2913 C81.5,222.2913 81.5,261.9903 81.5,261.9903 " fill="none" id="Decorator-backto-EncryptionOut" style="stroke:#A80036;stroke-width:1.0;"/><polygon fill="none" points="74.5001,222.2913,81.5,202.2913,88.5001,222.2913,74.5001,222.2913" style="stroke:#A80036;stroke-width:1.0;"/><!--MD5=[dfa7f2ec7394f1110add3d50f92d6a91]
reverse link Decorator to ZipOut--><path d="M196,222.2913 C196,222.2913 196,261.9903 196,261.9903 " fill="none" id="Decorator-backto-ZipOut" style="stroke:#A80036;stroke-width:1.0;"/><polygon fill="none" points="189.0001,222.2913,196,202.2913,203.0001,222.2913,189.0001,222.2913" style="stroke:#A80036;stroke-width:1.0;"/><!--MD5=[c02eb7bc279c1dd732add2001b01ce3e]
link App to FileOut--><path codeLine="20" d="M110.0546,38 C110.0546,38 139.7257,38 139.7257,38 " fill="none" id="App-to-FileOut" style="stroke:#A80036;stroke-width:1.0;"/><polygon fill="#A80036" points="144.7257,38,135.7257,34,139.7257,38,135.7257,42,144.7257,38" style="stroke:#A80036;stroke-width:1.0;"/><!--MD5=[3627736812e9489d69e8f8d4d05d4fa3]
@startuml
skinparam linetype ortho

class App {}

interface FileOut {
  + write(data: byte[]): void
}

abstract class Decorator implements FileOut {
  - delegate: FileOut
  # doDelegate(data: byte[]): void
}

class FileOutImpl implements FileOut {}

class EncryptionOut extends Decorator {}

class ZipOut extends Decorator {}

App -> FileOut
@enduml

PlantUML version 1.2020.22(Sun Dec 06 09:36:27 UTC 2020)
(GPL source distribution)
Java Runtime: OpenJDK Runtime Environment
JVM: OpenJDK 64-Bit Server VM
Default Encoding: UTF-8
Language: en
Country: US
--></g></svg>