<?xml version="1.0" encoding="UTF-8" standalone="no"?><svg xmlns="http://www.w3.org/2000/svg" xmlns:xlink="http://www.w3.org/1999/xlink" contentScriptType="application/ecmascript" contentStyleType="text/css" height="202px" preserveAspectRatio="none" style="width:286px;height:202px;" version="1.1" viewBox="0 0 286 202" width="286px" zoomAndPan="magnify"><defs><filter height="300%" id="f110s5z1kb21xk" width="300%" x="-1" y="-1"><feGaussianBlur result="blurOut" stdDeviation="2.0"/><feColorMatrix in="blurOut" result="blurOut2" type="matrix" values="0 0 0 0 0 0 0 0 0 0 0 0 0 0 0 0 0 0 .4 0"/><feOffset dx="4.0" dy="4.0" in="blurOut2" result="blurOut3"/><feBlend in="SourceGraphic" in2="blurOut3" mode="normal"/></filter></defs><g><!--MD5=[b1a6bf9cba0999e1042ab692f50fd3ae]
class ListUI--><rect codeLine="3" fill="#FEFECE" filter="url(#f110s5z1kb21xk)" height="48" id="ListUI" style="stroke:#A80036;stroke-width:1.5;" width="65" x="7" y="13.5"/><ellipse cx="22" cy="29.5" fill="#ADD1B2" rx="11" ry="11" style="stroke:#A80036;stroke-width:1.0;"/><path d="M24.9688,35.1406 Q24.3906,35.4375 23.75,35.5781 Q23.1094,35.7344 22.4063,35.7344 Q19.9063,35.7344 18.5781,34.0938 Q17.2656,32.4375 17.2656,29.3125 Q17.2656,26.1875 18.5781,24.5313 Q19.9063,22.875 22.4063,22.875 Q23.1094,22.875 23.75,23.0313 Q24.4063,23.1875 24.9688,23.4844 L24.9688,26.2031 Q24.3438,25.625 23.75,25.3594 Q23.1563,25.0781 22.5313,25.0781 Q21.1875,25.0781 20.5,26.1563 Q19.8125,27.2188 19.8125,29.3125 Q19.8125,31.4063 20.5,32.4844 Q21.1875,33.5469 22.5313,33.5469 Q23.1563,33.5469 23.75,33.2813 Q24.3438,33 24.9688,32.4219 L24.9688,35.1406 Z " fill="#000000"/><text fill="#000000" font-family="sans-serif" font-size="12" lengthAdjust="spacingAndGlyphs" textLength="33" x="36" y="33.6543">ListUI</text><line style="stroke:#A80036;stroke-width:1.5;" x1="8" x2="71" y1="45.5" y2="45.5"/><line style="stroke:#A80036;stroke-width:1.5;" x1="8" x2="71" y1="53.5" y2="53.5"/><!--MD5=[964f074a2dd77d134c21b891bb53e381]
class Image--><rect codeLine="5" fill="#FEFECE" filter="url(#f110s5z1kb21xk)" height="60.8047" id="Image" style="stroke:#A80036;stroke-width:1.5;" width="93" x="107" y="7"/><ellipse cx="132.35" cy="23" fill="#B4A7E5" rx="11" ry="11" style="stroke:#A80036;stroke-width:1.0;"/><path d="M128.2719,18.7656 L128.2719,16.6094 L135.6625,16.6094 L135.6625,18.7656 L133.1938,18.7656 L133.1938,26.8438 L135.6625,26.8438 L135.6625,29 L128.2719,29 L128.2719,26.8438 L130.7406,26.8438 L130.7406,18.7656 L128.2719,18.7656 Z " fill="#000000"/><text fill="#000000" font-family="sans-serif" font-size="12" font-style="italic" lengthAdjust="spacingAndGlyphs" textLength="38" x="148.65" y="27.1543">Image</text><line style="stroke:#A80036;stroke-width:1.5;" x1="108" x2="199" y1="39" y2="39"/><line style="stroke:#A80036;stroke-width:1.5;" x1="108" x2="199" y1="47" y2="47"/><ellipse cx="118" cy="58" fill="#84BE84" rx="3" ry="3" style="stroke:#038048;stroke-width:1.0;"/><text fill="#000000" font-family="sans-serif" font-size="11" lengthAdjust="spacingAndGlyphs" textLength="67" x="127" y="61.2104">draw(): void</text><!--MD5=[b80044190758d1ea057d0acc6bc57b50]
class ProxyImage--><rect codeLine="9" fill="#FEFECE" filter="url(#f110s5z1kb21xk)" height="60.8047" id="ProxyImage" style="stroke:#A80036;stroke-width:1.5;" width="115" x="25" y="128"/><ellipse cx="45.4" cy="144" fill="#ADD1B2" rx="11" ry="11" style="stroke:#A80036;stroke-width:1.0;"/><path d="M48.3688,149.6406 Q47.7906,149.9375 47.15,150.0781 Q46.5094,150.2344 45.8063,150.2344 Q43.3063,150.2344 41.9781,148.5938 Q40.6656,146.9375 40.6656,143.8125 Q40.6656,140.6875 41.9781,139.0313 Q43.3063,137.375 45.8063,137.375 Q46.5094,137.375 47.15,137.5313 Q47.8063,137.6875 48.3688,137.9844 L48.3688,140.7031 Q47.7438,140.125 47.15,139.8594 Q46.5563,139.5781 45.9313,139.5781 Q44.5875,139.5781 43.9,140.6563 Q43.2125,141.7188 43.2125,143.8125 Q43.2125,145.9063 43.9,146.9844 Q44.5875,148.0469 45.9313,148.0469 Q46.5563,148.0469 47.15,147.7813 Q47.7438,147.5 48.3688,146.9219 L48.3688,149.6406 Z " fill="#000000"/><text fill="#000000" font-family="sans-serif" font-size="12" lengthAdjust="spacingAndGlyphs" textLength="71" x="60.6" y="148.1543">ProxyImage</text><line style="stroke:#A80036;stroke-width:1.5;" x1="26" x2="139" y1="160" y2="160"/><rect fill="none" height="6" style="stroke:#C82930;stroke-width:1.0;" width="6" x="33" y="168"/><text fill="#000000" font-family="sans-serif" font-size="11" lengthAdjust="spacingAndGlyphs" textLength="89" x="45" y="174.2104">real: RealImage</text><line style="stroke:#A80036;stroke-width:1.5;" x1="26" x2="139" y1="180.8047" y2="180.8047"/><!--MD5=[89d30dc0c0d094d34ed46ab1b68a4180]
class RealImage--><rect codeLine="13" fill="#FEFECE" filter="url(#f110s5z1kb21xk)" height="48" id="RealImage" style="stroke:#A80036;stroke-width:1.5;" width="97" x="175" y="134.5"/><ellipse cx="190" cy="150.5" fill="#ADD1B2" rx="11" ry="11" style="stroke:#A80036;stroke-width:1.0;"/><path d="M192.9688,156.1406 Q192.3906,156.4375 191.75,156.5781 Q191.1094,156.7344 190.4063,156.7344 Q187.9063,156.7344 186.5781,155.0938 Q185.2656,153.4375 185.2656,150.3125 Q185.2656,147.1875 186.5781,145.5313 Q187.9063,143.875 190.4063,143.875 Q191.1094,143.875 191.75,144.0313 Q192.4063,144.1875 192.9688,144.4844 L192.9688,147.2031 Q192.3438,146.625 191.75,146.3594 Q191.1563,146.0781 190.5313,146.0781 Q189.1875,146.0781 188.5,147.1563 Q187.8125,148.2188 187.8125,150.3125 Q187.8125,152.4063 188.5,153.4844 Q189.1875,154.5469 190.5313,154.5469 Q191.1563,154.5469 191.75,154.2813 Q192.3438,154 192.9688,153.4219 L192.9688,156.1406 Z " fill="#000000"/><text fill="#000000" font-family="sans-serif" font-size="12" lengthAdjust="spacingAndGlyphs" textLength="65" x="204" y="154.6543">RealImage</text><line style="stroke:#A80036;stroke-width:1.5;" x1="176" x2="271" y1="166.5" y2="166.5"/><line style="stroke:#A80036;stroke-width:1.5;" x1="176" x2="271" y1="174.5" y2="174.5"/><!--MD5=[85f03f213ee77362854fdc48b77a1577]
reverse link Image to ProxyImage--><path d="M123.5,88.0334 C123.5,88.0334 123.5,127.9764 123.5,127.9764 " fill="none" id="Image-backto-ProxyImage" style="stroke:#A80036;stroke-width:1.0;stroke-dasharray:7.0,7.0;"/><polygon fill="none" points="116.5001,88.0334,123.5,68.0334,130.5001,88.0334,116.5001,88.0334" style="stroke:#A80036;stroke-width:1.0;"/><!--MD5=[7345adca31c04485740eb50d8cb4dcaa]
reverse link Image to RealImage--><path d="M187.5,88.0334 C187.5,88.0334 187.5,134.4587 187.5,134.4587 " fill="none" id="Image-backto-RealImage" style="stroke:#A80036;stroke-width:1.0;stroke-dasharray:7.0,7.0;"/><polygon fill="none" points="180.5001,88.0334,187.5,68.0334,194.5001,88.0334,180.5001,88.0334" style="stroke:#A80036;stroke-width:1.0;"/><!--MD5=[af2932a331f32f5f32b194d000eb2960]
link ListUI to Image--><path codeLine="15" d="M72.1678,38 C72.1678,38 101.8106,38 101.8106,38 " fill="none" id="ListUI-to-Image" style="stroke:#A80036;stroke-width:1.0;stroke-dasharray:7.0,7.0;"/><polygon fill="#A80036" points="106.8106,38,97.8106,34,101.8106,38,97.8106,42,106.8106,38" style="stroke:#A80036;stroke-width:1.0;"/><!--MD5=[5df0b6fd37cbca177e8d6ec8617f3d22]
link ProxyImage to RealImage--><path codeLine="16" d="M140.2569,159 C140.2569,159 169.6132,159 169.6132,159 " fill="none" id="ProxyImage-to-RealImage" style="stroke:#A80036;stroke-width:1.0;"/><polygon fill="#A80036" points="174.6132,159,165.6132,155,169.6132,159,165.6132,163,174.6132,159" style="stroke:#A80036;stroke-width:1.0;"/><!--MD5=[9c883730e19b6e3f97aea5375496c9e3]
@startuml
skinparam linetype ortho

class ListUI {}

interface Image {
  + draw(): void
}

class ProxyImage implements Image {
  - real: RealImage
}

class RealImage implements Image {}

ListUI .> Image
ProxyImage -> RealImage
@enduml

PlantUML version 1.2020.22(Sun Dec 06 09:36:27 UTC 2020)
(GPL source distribution)
Java Runtime: OpenJDK Runtime Environment
JVM: OpenJDK 64-Bit Server VM
Default Encoding: UTF-8
Language: en
Country: US
--></g></svg>